PathFileType	4	(X/Y/Z)	C:/Users/opensim2020/Desktop/walking_exp_matlab/subject03_walking08_straight_04.trc	
DataRate	CameraRate	NumFrames	NumMarkers	Units	OrigDataRate	OrigDataStartFrame	OrigNumFrames	
100.00	100.00	6	51	mm	100.00	3389	303	
Frame#	Time	LFHD			RFHD			LBHD			RBHD			C7			T10			CLAV			STRN			RBAK			LSHO			LUPA			LELB			LFRM			LWRA			LWRB			LFIN			RSHO			RUPA			RELB			RFRM			RWRA			RWRB			RFIN			LASI			RASI			LPSI			RPSI			LTHI			LKNE			LTIB			LANK			LHEE			LTOE			RTHI			RKNE			RTIB			RANK			RHEE			RTOE			*39			*40			*41			*42			*43			*44			*45			*46			*47			*48			*49			*50			
		X1	Y1	Z1	X2	Y2	Z2	X3	Y3	Z3	X4	Y4	Z4	X5	Y5	Z5	X6	Y6	Z6	X7	Y7	Z7	X8	Y8	Z8	X9	Y9	Z9	X10	Y10	Z10	X11	Y11	Z11	X12	Y12	Z12	X13	Y13	Z13	X14	Y14	Z14	X15	Y15	Z15	X16	Y16	Z16	X17	Y17	Z17	X18	Y18	Z18	X19	Y19	Z19	X20	Y20	Z20	X21	Y21	Z21	X22	Y22	Z22	X23	Y23	Z23	X24	Y24	Z24	X25	Y25	Z25	X26	Y26	Z26	X27	Y27	Z27	X28	Y28	Z28	X29	Y29	Z29	X30	Y30	Z30	X31	Y31	Z31	X32	Y32	Z32	X33	Y33	Z33	X34	Y34	Z34	X35	Y35	Z35	X36	Y36	Z36	X37	Y37	Z37	X38	Y38	Z38	X39	Y39	Z39	X40	Y40	Z40	X41	Y41	Z41	X42	Y42	Z42	X43	Y43	Z43	X44	Y44	Z44	X45	Y45	Z45	X46	Y46	Z46	X47	Y47	Z47	X48	Y48	Z48	X49	Y49	Z49	X50	Y50	Z50	X51	Y51	Z51	

38	0.370	1521.38892	963.40808	1615.10535	1390.51685	986.56250	1623.31653	1539.84509	1094.89124	1587.18066	1409.91687	1112.30420	1594.03113	1486.08740	1150.55859	1426.91956	1483.51538	1192.06763	1112.83252	1465.71533	1033.66589	1345.53711	1463.50122	992.11304	1180.69849	1394.55322	1221.37439	1251.70374	1625.44812	1052.30872	1380.40503	1698.93274	1026.65051	1188.06128	1711.44116	997.97925	1068.67444	1705.06226	952.05878	946.91437	1672.04480	923.71887	832.06488	1727.56946	930.73706	837.14319	1715.96533	902.05121	758.60712	1314.97083	1101.32263	1372.88147	1240.20142	1106.07715	1150.48633	1223.84985	1088.61108	1039.72485	1217.28247	1067.66406	904.50665	1246.66309	1030.21094	809.68292	1206.43176	1066.65479	804.49005	1212.51172	1041.09595	734.27991	1583.60754	1017.91913	947.03912	1346.18054	1041.44019	942.64606	1547.94043	1183.54773	976.59918	1399.56042	1196.37720	975.93109	1623.07422	1077.50818	647.79254	1578.74194	1074.63989	470.29095	1577.80408	1124.41260	281.28851	1533.39685	1138.29712	71.91808	1495.67981	1176.39453	36.45220	1508.07776	984.04358	35.55103	1295.67639	1050.82935	650.62726	1312.52356	988.81384	480.45575	1314.31873	1100.50293	326.00931	1361.29980	1223.65295	150.41470	1417.60144	1274.44812	140.62321	1366.95142	1123.62988	51.68242																																				 
39	0.380	1521.56555	956.36255	1614.82715	1390.72009	979.63763	1623.09229	1540.14636	1087.93677	1587.29456	1410.34851	1105.64465	1594.25061	1486.40076	1143.91382	1426.87329	1484.17737	1185.43774	1112.82288	1465.97205	1027.19800	1345.54700	1463.87256	985.98102	1180.79016	1395.30652	1214.95520	1251.52454	1625.68420	1045.61975	1380.63452	1699.42798	1018.20026	1188.86047	1712.03784	987.86096	1069.95386	1705.59094	939.70209	949.03027	1672.36316	909.10547	834.73761	1727.76990	916.56744	839.55542	1716.21692	886.43182	761.49896	1315.36292	1095.20251	1372.82800	1240.33264	1100.99500	1150.49219	1223.70056	1084.49182	1039.67212	1217.12939	1063.75183	904.39661	1246.37256	1026.11340	809.69690	1206.45081	1062.92969	804.36212	1212.68066	1037.43176	733.97736	1584.12756	1011.65582	946.69617	1346.84668	1035.30847	942.83868	1548.17371	1177.27075	976.60950	1399.80798	1189.87915	975.97516	1623.13000	1072.91052	647.52954	1578.82385	1071.50415	470.09970	1577.78687	1122.66736	281.39517	1533.30835	1138.12671	72.14106	1495.51331	1176.36157	36.70198	1508.08850	983.97162	35.49162	1296.24829	1041.53308	651.51178	1313.99060	977.97357	481.93265	1315.31958	1084.38196	323.34195	1361.75989	1201.06201	142.95938	1417.81238	1251.69519	130.98093	1367.98962	1096.41870	49.24356																																				 
40	0.390	1521.66589	949.46051	1614.58813	1390.88708	972.84979	1622.85645	1540.42493	1081.05310	1587.33325	1410.73706	1099.00940	1594.40332	1486.75232	1137.39636	1426.90002	1484.79272	1178.86230	1112.77979	1466.22449	1020.70898	1345.50403	1464.19421	979.46594	1180.69055	1396.02112	1208.58728	1251.30188	1625.86865	1038.94495	1380.78125	1699.83508	1009.82037	1189.50537	1712.58618	977.83649	1071.04358	1706.10376	927.54877	951.07458	1672.56982	894.60864	837.39526	1727.91943	902.68585	841.92328	1716.38770	871.24225	764.41174	1315.67468	1089.01404	1372.47729	1240.53247	1095.76831	1150.40454	1223.61133	1080.20007	1039.54907	1217.04822	1059.67993	904.18512	1246.11890	1021.85193	809.56036	1206.54578	1059.05518	804.08643	1212.77869	1033.55994	733.66992	1584.61328	1005.49438	946.41095	1347.26404	1027.88953	943.29663	1548.24341	1170.98206	976.49548	1399.99829	1183.46033	976.00757	1623.13794	1068.33655	647.27380	1578.85071	1068.29761	469.87152	1577.76843	1120.93152	281.53146	1533.22742	1137.94507	72.36608	1495.37317	1176.32434	37.06343	1508.13843	983.92035	35.47581	1296.84351	1032.31091	652.37494	1315.39771	967.52271	483.20972	1316.24744	1068.31226	320.55222	1362.33801	1177.94861	135.54974	1418.07922	1228.20435	121.11714	1368.94507	1068.91687	47.06583																																				 
41	0.400	1521.67468	942.60785	1614.34192	1390.94629	966.14954	1622.68591	1540.59314	1074.21924	1587.25012	1410.89880	1092.29956	1594.27441	1487.01831	1130.67310	1426.74036	1485.28687	1172.30957	1112.69812	1466.33313	1014.16864	1345.33276	1464.38672	972.87903	1180.63379	1396.74890	1202.23840	1251.04956	1626.01013	1032.22888	1380.84436	1700.11755	1001.52026	1190.04773	1713.13733	968.01355	1072.12219	1706.61169	915.63611	953.06189	1672.70203	880.33405	840.17957	1727.95471	889.01593	844.22247	1716.28015	856.13507	767.24451	1315.93298	1082.82776	1372.21692	1240.58850	1090.64697	1150.19128	1223.57312	1075.73035	1039.25012	1217.02490	1055.51953	903.87854	1246.02319	1017.53058	809.28046	1206.71008	1055.02441	803.72247	1213.00598	1029.62231	733.35730	1585.02283	999.29828	946.06006	1347.77051	1021.38599	943.52008	1548.31201	1164.79614	976.35443	1400.08057	1177.03796	975.96350	1623.09387	1063.71692	647.01886	1578.85938	1065.07861	469.67404	1577.66577	1119.22717	281.70901	1533.09082	1137.76648	72.61237	1495.47632	1176.64148	37.77698	1508.18127	983.83936	35.40600	1297.26172	1022.88629	653.08026	1316.71130	957.46686	484.36789	1317.08105	1052.49170	317.74442	1362.92261	1154.40088	128.05870	1418.71045	1204.36499	111.49395	1369.66113	1041.35815	45.32418																																				 
42	0.410	1521.66418	935.82111	1614.10181	1390.88867	959.52661	1622.39270	1540.70447	1067.41443	1587.02832	1410.99426	1085.52954	1594.02661	1487.26648	1124.05383	1426.56470	1485.71167	1165.76758	1112.56262	1466.53271	1007.60297	1345.11145	1464.59656	966.46057	1180.35901	1397.51160	1195.96289	1250.88049	1626.15063	1025.53015	1380.76379	1700.44800	993.27509	1190.53284	1713.63525	958.40594	1073.11377	1706.97852	903.94934	955.00800	1672.80054	866.33740	843.03131	1727.99597	875.84991	846.59351	1715.96899	841.22565	770.10522	1316.20325	1076.65967	1371.85242	1240.78723	1085.32678	1149.84351	1223.62805	1071.02258	1038.86304	1217.03955	1051.12915	903.47467	1246.00110	1013.15094	808.83258	1207.02917	1050.89355	803.21863	1213.32849	1025.51697	732.82666	1585.61243	993.06757	945.68323	1348.17041	1014.96844	943.57629	1548.32532	1158.62976	976.16138	1400.12659	1170.64014	975.86108	1623.01050	1059.13293	646.79126	1578.85754	1061.94629	469.50055	1577.63220	1117.57532	281.89035	1532.96692	1137.54846	72.86416	1495.30139	1176.56555	38.18259	1508.23242	983.75262	35.38915	1297.56909	1014.25873	653.70190	1317.89270	947.91193	485.27768	1317.83899	1036.97632	315.01147	1363.50110	1130.69897	121.06007	1419.14624	1179.83716	101.90228	1370.09802	1013.69049	43.89301																																				 
43	0.420	1521.56116	929.05212	1613.81738	1390.85095	952.92438	1621.98303	1540.76978	1060.63025	1586.70410	1411.05212	1078.90063	1593.56689	1487.52686	1117.35364	1426.35425	1485.96680	1159.25024	1112.37524	1466.62512	1001.04108	1344.74817	1464.82813	959.90265	1179.93433	1398.22131	1189.68921	1250.61304	1626.24280	1018.76892	1380.62952	1700.79370	985.08655	1190.96960	1713.97424	948.94611	1073.98535	1707.15833	892.50714	956.78339	1672.61060	852.52728	845.66010	1727.62708	862.62488	848.58313	1715.57813	826.81128	772.93488	1316.35315	1070.41125	1371.29895	1240.96631	1080.10645	1149.45740	1223.75488	1066.16479	1038.37939	1217.21655	1046.46753	902.91431	1246.12537	1008.57654	808.38684	1207.13733	1046.39478	802.69415	1213.72498	1021.06342	732.15137	1585.82251	987.22919	945.29120	1348.55212	1008.49158	943.57751	1548.22156	1152.45276	975.90338	1400.12708	1164.15015	975.65991	1622.83679	1054.53699	646.54285	1578.84570	1058.91309	469.35123	1577.55945	1115.95825	282.02539	1532.80627	1137.33362	73.13831	1495.13477	1176.48608	38.64100	1508.17200	983.48553	35.33876	1297.81543	1005.60455	654.12537	1318.92676	938.71918	485.97586	1318.59363	1021.64349	312.30972	1364.09277	1106.71106	114.31461	1419.63599	1154.69348	92.68955	1370.29150	985.77716	43.38802																																				 
